<svg width="24" height="14" viewBox="0 0 24 14" fill="none" xmlns="http://www.w3.org/2000/svg">
<path fill-rule="evenodd" clip-rule="evenodd" d="M9.46981 1.0606C9.4872 1.94755 10.522 3.37364 11.2263 3.10407C11.5307 2.98234 11.5307 2.85191 11.2002 1.90408C10.4089 -0.348093 9.45242 0.347553 9.46981 1.0606ZM15.2089 3.06929C14.9655 3.75625 15.8089 3.87799 16.3916 3.2432C16.9829 2.59103 17.6176 1.61712 17.9568 0.956253C18.3307 0.32147 17.6002 -0.000268906 16.9915 0.52147C16.2698 1.13017 15.3742 2.59103 15.2089 3.06929ZM3.22635 2.53886C2.68722 2.75625 4.49591 4.99973 5.22635 5.01712C6.07852 5.03451 6.14807 4.84321 5.55677 4.0519C4.62633 2.79973 3.84374 2.28668 3.22635 2.53886ZM11.4003 5.76494C11.0785 6.08668 10.6959 6.53017 10.5481 6.73886C9.2785 8.63451 9.2611 8.65191 8.6785 8.20843C7.33067 7.19973 5.11328 6.51277 5.54806 8.26929C5.81763 9.33016 6.61764 11.2693 6.82634 11.9128C7.36547 13.6084 7.65243 13.8867 8.60895 13.6606C10.9829 13.0867 14.3742 13.0693 16.8003 13.6171C17.4003 13.7563 17.4351 13.6867 17.4959 12.478C17.6177 10.0345 19.0263 7.6519 19.0263 6.88668C19.0263 6.02581 17.4003 6.66929 15.1916 8.39973L14.9655 8.57364L14.6437 8.35625C13.9829 7.91277 13.6524 8.2606 14.0263 8.99973C14.3307 9.59973 14.5829 9.79973 15.2524 9.47799C15.635 9.29538 16.1655 8.94755 16.9133 8.41712C17.2089 8.20842 17.4524 8.0606 17.4524 8.08669C17.4524 8.20843 16.922 10.4867 16.922 10.4954L15.6002 10.3823C14.5481 10.3389 14.4263 10.8954 15.5133 11.0606C15.6263 11.078 16.7394 11.2171 16.7394 11.2171C16.7394 11.2171 16.6959 11.7041 16.5742 11.9823C16.4437 12.2606 16.2263 12.3302 15.8698 12.2084C13.0785 11.2867 8.53069 12.4084 8.52199 12.4084C8.35677 12.4345 6.84374 8.44321 6.96548 8.32147C6.98287 8.30408 7.16545 8.41712 7.37415 8.57364C9.73067 10.2867 9.97417 10.2345 11.5307 7.73886L12.2611 6.56495L12.5481 6.99104C13.3828 8.23452 14.5655 7.68669 13.9046 6.77365C13.6785 6.4693 13.3046 6.01712 12.7046 5.31277C12.435 4.99103 12.035 5.13016 11.4003 5.76494ZM22.7133 5.63451C22.4003 5.81712 20.7655 7.38233 20.5742 7.67799C20.1655 8.33016 21.0177 8.47799 21.7916 7.88668C22.6959 7.19973 23.9742 6.01713 23.9742 5.8606C23.9829 5.54756 23.1394 5.39103 22.7133 5.63451ZM1.17417 9.79973C2.44373 10.1128 3.17415 10.191 3.4611 10.0345C3.93067 9.78234 3.71329 9.59973 2.60024 9.32147C2.4959 9.29538 1.4698 9.00842 0.765452 9.00842C0.261105 9.00842 -0.860618 9.28668 1.17417 9.79973Z" fill="#1D4E1A"/>
</svg>
