<svg width="48" height="38" viewBox="0 0 48 38" fill="none" xmlns="http://www.w3.org/2000/svg">
<path d="M29.1203 2.92342C29.9806 1.17403 28.8621 -0.0878108 27.672 1.30309C26.7973 2.33552 25.5642 5.27506 25.7792 5.83429C26.2811 7.11048 27.6577 5.90597 29.1203 2.92342Z" fill="#1D4E1A"/>
<path d="M20.5598 6.45073C21.4632 6.73751 21.7787 6.20695 21.6783 4.57228C21.4632 1.34595 20.4738 0.0124059 18.7817 0.686349C17.9788 1.00181 19.5561 6.13526 20.5598 6.45073Z" fill="#1D4E1A"/>
<path d="M11.5119 7.28268C13.548 8.80264 14.9676 9.47658 15.6845 9.21848C16.5736 8.90302 16.4302 8.6019 14.8099 7.32571C12.745 5.6767 11.6122 5.18916 10.5224 5.47594C9.74809 5.67669 9.99191 6.13555 11.5119 7.28268Z" fill="#1D4E1A"/>
<path d="M29.1058 7.82742C28.6183 8.35797 28.6183 8.3723 28.9912 8.64475C30.0523 9.41907 31.1851 8.80248 35.6732 4.97391C36.8777 3.94149 34.8845 3.12416 33.4793 4.08489C32.748 4.58676 29.6794 7.21083 29.1058 7.82742Z" fill="#1D4E1A"/>
<path d="M46.1697 33.6666C45.6678 33.2508 45.338 32.4765 45.1947 31.3723C45.0943 30.6124 43.4883 18.0512 42.757 14.7388C42.1547 11.9857 40.4627 10.6809 39.1148 10.6092C38.2688 10.5661 37.7813 11.1254 37.4371 10.9103C36.5051 10.3224 36.2469 10.0499 35.3292 10.136C34.8991 10.1646 33.9383 10.4227 33.6085 10.7095C33.3934 10.8816 33.121 10.8816 32.5188 10.7239C29.5649 9.9352 28.26 12.7457 29.5935 17.0331C30.3535 19.4851 31.4433 18.4097 31.1279 15.5275C30.712 11.7133 30.7981 11.3118 31.9882 11.7419C32.6335 11.9714 32.6621 12.0287 32.6048 12.8174C32.5187 13.9215 33.2931 18.9689 33.5799 19.1553C34.3685 19.6715 34.9708 18.7538 34.7127 17.3916C34.01 13.5774 34.4833 11.2114 35.8885 11.5699C36.3187 11.6846 36.6341 12.0717 36.6341 12.5163C36.7058 16.8324 36.7488 19.7146 38.068 19.7146C38.8997 19.7146 38.8997 19.7432 38.7133 16.0007C38.5126 12.0287 38.9858 11.8136 39.6884 12.0287C40.7065 12.3442 40.8069 14.7245 40.9072 15.3698C40.9072 15.3841 43.1728 30.2682 43.1728 30.2969C43.4453 33.681 45.5531 36.6492 47.03 35.7028C47.3312 35.502 46.7719 34.1685 46.1697 33.6666Z" fill="#1D4E1A"/>
<path d="M10.7518 15.5992C10.7518 13.2906 10.7805 13.1042 11.2393 12.588C12.0567 11.6272 12.3148 12.5019 12.4725 16.9184C12.5872 20.1447 12.6016 20.1878 13.2899 20.3885C14.1789 20.6609 14.265 20.2451 14.1646 16.6029C14.0642 13.3193 14.0785 13.2046 14.5087 12.7744C15.3978 11.871 15.5842 12.2295 15.957 15.3411C16.1721 17.2339 16.1434 18.295 15.8422 19.9297C15.7705 20.3455 15.8422 20.4745 16.1864 20.5749C17.1184 20.8187 17.2762 20.5032 17.5486 17.7788C18.0218 13.0612 17.3766 11.6416 14.7095 11.6129C13.9208 11.5986 13.0174 11.4982 12.702 11.3548C12.3865 11.2257 11.6695 11.1254 11.1103 11.1397C10.5511 11.154 9.63335 11.111 9.08846 11.0393C8.42885 10.9533 7.88402 11.0107 7.49686 11.1827C5.84785 11.9427 5.56106 12.8317 3.62527 23.285C3.29547 25.0918 2.92263 27.343 2.82226 28.2751C2.62151 30.0101 2.01923 32.032 1.21624 33.6953C0.657007 34.8424 0.786089 35.2583 1.67512 35.2583C3.26677 35.2583 4.75805 32.6772 5.11653 29.2788C5.30294 27.4721 5.63276 26.7264 6.20633 22.5967C7.29611 14.6385 7.4968 13.7208 8.2998 12.7887C9.40392 11.5125 9.30354 11.9284 9.44694 19.3561C9.44694 19.6715 9.73375 19.9153 10.0492 19.8866C10.6228 19.8436 10.7518 19.3131 10.7518 15.5992Z" fill="#1D4E1A"/>
<path d="M37.4944 35.373C36.591 33.7097 36.5193 33.6523 34.9133 33.4802C32.9632 33.2652 31.4575 32.5052 30.8123 31.4154C29.3927 28.9921 27.3996 22.5537 27.629 21.1342C27.9445 19.141 28.604 19.2844 29.6795 21.55C30.5255 23.3281 31.0848 23.959 33.0779 25.4503C33.9669 26.1099 34.5118 26.6978 34.8703 27.4004C35.3148 28.2608 35.4725 28.4042 35.9887 28.4042C37.7525 28.4042 35.6446 24.5756 33.4937 23.8873C32.576 23.6005 32.2893 23.3568 32.2893 22.8836C32.2893 20.5176 28.8335 17.9509 26.9981 18.9546C25.4208 19.8293 25.2917 21.1485 26.3815 25.1205C28.475 32.7346 29.6508 34.2832 33.5798 34.6274C35.1141 34.7708 35.4869 35.0289 36.2612 36.4771C37.3223 38.4703 38.5411 37.1081 38.2974 36.7926C38.2113 36.6636 37.8528 36.0326 37.4944 35.373Z" fill="#1D4E1A"/>
<path d="M18.4377 19.8867C17.3909 20.3743 16.2581 21.5788 15.7706 22.7259C15.4121 23.5719 15.3118 23.6579 14.5088 23.787C12.7594 24.0594 11.2394 25.3643 11.01 26.7552C10.8093 27.9884 12.0711 28.6193 12.5299 27.5009C13.1322 26.0526 14.3223 24.9341 15.6272 24.6043C16.4302 24.4036 18.0362 22.7976 19.3985 20.8761C20.2588 19.6573 20.8324 21.3063 20.2301 23.2278C18.3373 29.1642 15.8853 32.4335 13.0605 32.749C11.8703 32.8924 11.6122 33.1362 10.5941 35.158C9.92018 36.4772 9.90587 36.5489 10.2643 36.807C11.1247 37.4379 11.9421 36.8357 12.5013 35.1723C12.8884 34.0252 12.9315 33.9678 13.8062 33.7528C17.1042 32.9067 18.7388 30.9566 21.1048 25.0919C22.9116 20.618 21.7501 18.3524 18.4377 19.8867Z" fill="#1D4E1A"/>
</svg>
