<svg width="16" height="16" viewBox="0 0 16 16" fill="none" xmlns="http://www.w3.org/2000/svg">
<path fill-rule="evenodd" clip-rule="evenodd" d="M5.93329 0.904134C4.30351 1.03557 3.96177 1.18014 4.40864 1.54816C4.52693 1.65331 5.65729 1.69274 8.1151 1.66645C12.5181 1.62702 13.2147 1.70588 13.7536 2.28419C14.3188 2.88878 15.3965 3.07279 15.3965 2.5602C15.3965 2.32362 14.4633 1.4693 14.0165 1.29844C13.1227 0.956708 8.20709 0.720127 5.93329 0.904134ZM1.4777 1.91617C-0.993256 4.38713 0.452501 15.1121 3.17318 14.5075C3.68577 14.3892 3.67264 14.2052 3.12062 13.9818C2.056 13.5349 1.77998 12.6674 2.05599 10.6828C2.21371 9.55247 2.23999 8.60614 2.17427 6.08262C2.08227 2.62591 2.1743 2.13961 2.92347 1.88989C3.3572 1.75845 3.12062 1.50873 2.52917 1.45616C2.04286 1.41673 1.92457 1.4693 1.4777 1.91617ZM10.7438 3.41452C9.96831 4.03226 10.402 4.84714 11.5192 4.84714C12.321 4.84714 12.7678 4.46598 12.7678 3.78253C12.7678 3.11222 11.4404 2.8625 10.7438 3.41452ZM14.253 3.69053C13.8719 4.79457 13.8982 5.42545 13.8982 11.6554C13.8587 11.7737 14.253 13.1538 12.5444 13.5218C11.8741 13.6663 10.678 13.7058 8.12819 13.7321C3.85659 13.7978 3.6463 13.8241 4.11946 14.3761C4.86863 15.283 12.6495 15.4801 14.3056 14.639C15.357 14.1001 15.804 11.9314 15.804 7.3181C15.7777 4.55799 14.7787 2.1659 14.253 3.69053ZM5.2104 6.08262C3.00231 8.14613 5.10521 11.7737 8.85107 11.1691C11.2037 10.7879 12.0187 5.88547 9.6923 5.88547C9.23228 5.88547 9.16654 6.08262 9.53455 6.37177C11.4272 7.85697 9.37682 10.9588 7.08988 10.2228C4.75036 9.47361 5.27612 5.76718 7.83907 5.76718C8.41738 5.76718 8.77221 5.50431 8.19391 5.26773C7.69446 5.05744 6.57731 4.82086 5.2104 6.08262Z" fill="#1D4E1A"/>
</svg>
