<svg width="16" height="16" viewBox="0 0 16 16" fill="none" xmlns="http://www.w3.org/2000/svg">
<path fill-rule="evenodd" clip-rule="evenodd" d="M3.77985 0.685668C1.32164 1.45115 0.146477 4.44843 0.890407 8.02793C1.1276 9.16002 2.0656 9.19236 3.20844 8.4808C4.41598 7.71523 5.83912 6.1088 6.88495 4.04951C8.00625 1.81773 6.24886 -0.0906103 3.77985 0.685668ZM4.93347 1.67756C6.15182 2.39993 5.83912 3.63982 3.80143 6.02254L2.61546 7.41341L2.58313 6.36758C2.4861 3.05761 3.57502 0.868946 4.93347 1.67756ZM10.7771 2.69104C9.10599 3.46731 6.55077 6.78802 6.55077 8.18967C6.55077 9.1061 7.20842 9.07376 10.4429 7.99558C12.9982 7.14384 14.2272 6.65862 14.777 5.97941C16.5991 3.74763 13.5156 1.41881 10.7771 2.69104ZM13.3 3.70451C13.8715 4.57782 12.4698 6.37836 10.7987 6.92819C9.42938 7.38106 8.49138 7.62897 8.58842 7.48888C8.64234 7.42419 8.9766 6.9821 9.33234 6.50775C11.0142 4.27594 12.8364 2.99293 13.3 3.70451ZM6.91729 10.3891C4.55613 10.7988 3.70439 12.416 6.5399 13.3864C7.0359 13.5589 8.10329 14.0548 8.9119 14.4861C11.273 15.7691 12.4482 15.7906 13.4402 14.5831C14.2056 13.6559 14.0116 12.168 13.2784 11.0684C11.4779 8.36219 8.18955 10.1627 6.91729 10.3891ZM12.3728 11.4996C12.9874 11.8123 12.9658 12.5238 12.3189 13.2462C11.4456 14.2165 10.7124 14.1626 8.63155 12.9659L7.12216 12.1034C7.35929 12.0603 8.21112 11.9201 9.63425 11.5858C10.9389 11.2624 11.8553 11.2408 12.3728 11.4996Z" fill="#1D4E1A"/>
</svg>
