<svg width="16" height="20" viewBox="0 0 16 20" fill="none" xmlns="http://www.w3.org/2000/svg">
<path fill-rule="evenodd" clip-rule="evenodd" d="M9.16679 0.647436C7.08716 1.70411 2.39953 6.92004 0.870728 9.84276C-0.0510529 11.6076 0.0613922 11.7088 3.04032 11.8774L5.1649 12.0011C1.30916 18.7458 1.70259 18.0264 1.66887 18.0938C0.825774 19.5439 1.97238 20.5107 3.18643 19.3753C3.19767 19.3641 13.6183 11.2704 15.4843 8.58374C15.6979 8.28022 15.6417 7.93174 15.1696 7.58327C14.3939 7.00996 13.3485 6.8301 9.53772 6.51535C8.94194 6.47038 8.67217 6.40295 8.71714 6.31301C8.99817 5.6273 10.0773 2.74954 10.5944 1.62542C11.2014 0.310193 11.1452 -0.364275 9.16679 0.647436ZM8.3911 3.16547C8.28993 3.40154 7.04215 6.3917 6.98594 6.51535C6.69367 7.09989 6.88478 7.40342 7.61546 7.48211C10.0436 7.74065 11.0103 7.83058 11.9883 7.87555C13.607 7.95424 13.6183 7.88678 11.9096 9.60669C10.0886 11.4502 5.43469 15.7219 5.33352 15.6207C5.24359 15.5308 6.73868 12.6756 7.14336 12.1472C7.87404 11.1917 7.6492 11.0568 5.32226 11.0568C4.27683 11.0568 3.62484 11.0343 3.13022 11.0006C2.66933 10.9669 2.38829 10.4723 2.61312 10.0563C3.45621 8.51629 4.96256 6.59405 7.46935 3.83995C8.61595 2.60341 8.6384 2.58093 8.3911 3.16547Z" fill="#1D4E1A"/>
</svg>
