<svg width="18" height="18" viewBox="0 0 18 18" fill="none" xmlns="http://www.w3.org/2000/svg">
<path fill-rule="evenodd" clip-rule="evenodd" d="M9.05199 4.86672L9.25275 5.52484C9.08543 5.65869 7.64659 6.94146 7.55736 6.79645C7.5462 6.78529 5.06982 5.49137 3.39665 5.94871C1.56732 6.45066 0.239956 8.36923 0.518818 10.8009C0.842298 13.5672 5.24836 15.0731 7.42348 13.1545L7.83622 12.7864C7.99238 12.8533 9.09661 13.3776 9.27508 13.3776C9.36432 13.3776 9.38663 13.4445 9.33085 13.5784C8.04809 16.7686 13.3354 19.4568 15.979 16.947C17.5629 15.4412 16.8044 11.5594 14.8635 11.3029C14.1831 11.2136 14.1273 11.4925 14.7073 12.0837C16.7151 14.1584 14.105 18.3971 11.8406 16.7351C9.37547 14.9392 11.2049 11.2917 13.5808 11.2694C13.9043 11.2694 14.0046 11.0798 13.7592 10.9459C12.8222 10.444 11.439 10.8455 10.3682 11.9387L9.72126 12.6972C9.60971 12.6525 8.60579 12.251 8.30462 12.1171L8.56126 11.4813C9.00744 10.3659 9.02968 9.45122 8.60581 8.46962C8.29349 7.72227 8.27118 7.62188 8.43849 7.52149C8.68389 7.37648 9.75477 6.57336 9.93324 6.43951L10.5244 6.82991C13.6253 8.88234 17.5294 7.07531 17.5183 3.58396C17.5071 1.76578 16.0682 0.806497 14.5623 0.360318C10.0448 -0.955911 8.28233 2.39043 9.05199 4.86672ZM15.9901 3.27163C15.9901 6.5622 11.9634 8.02344 10.8479 5.13443C10.4017 3.96321 10.6025 -0.152788 14.1273 0.918041C15.1312 1.21921 15.9901 2.06695 15.9901 3.27163ZM7.42348 7.84497C8.33815 9.18351 7.60197 11.9164 5.60532 12.9314C4.44526 13.5226 2.89474 12.7529 2.43741 11.3586C2.03585 10.1651 2.45974 8.69271 3.18478 7.73342C4.48985 6.00448 6.95499 7.16455 7.42348 7.84497Z" fill="#1D4E1A"/>
</svg>
