<svg width="18" height="17" viewBox="0 0 18 17" fill="none" xmlns="http://www.w3.org/2000/svg">
<path d="M16.8076 6.77941L16.4734 5.65182L16.8493 5.1611C18.2379 3.33399 15.6591 0.473246 13.6127 1.56952C13.3934 1.68436 13.1325 1.6948 12.7566 1.60084C12.0675 1.42335 9.81231 1.04748 9.35292 0.99528C7.82859 0.807348 8.24618 1.54863 8.90394 1.61128C10.3865 1.76789 10.3552 1.68436 9.95846 2.10199C9.34246 2.75975 9.87495 5.32815 10.8564 6.44531C11.7438 7.45805 13.8946 8.00097 14.5628 7.37453C15.8888 6.12165 15.5234 11.9267 14.1556 13.7016C9.89584 19.2456 0.916831 13.8999 2.53513 6.77941L2.7231 5.94415L3.4957 6.45575C4.84254 7.35365 5.39588 6.9047 4.36225 5.75622C2.67086 3.88734 3.24513 1.50687 5.02005 3.02077C5.61516 3.53236 6.34602 3.60545 6.6488 3.19826C7.5467 1.96626 8.07913 2.40477 8.06869 3.72029C8.06869 4.43026 7.73461 4.91053 6.36688 6.18429C5.1662 7.30144 5.114 7.67731 6.15807 7.67731C6.85759 7.67731 9.1232 4.99405 9.32157 3.93954C9.60347 2.45697 7.59887 1.24585 6.40863 2.17507C6.13718 2.39433 5.97016 2.43609 5.86575 2.33168C5.76134 2.22728 5.78221 2.03934 6.11632 1.85141C6.45042 1.66348 6.96201 1.51731 6.84716 1.20409C6.69055 0.786466 5.53163 1.32938 5.37502 1.42334C5.21841 1.50687 4.65461 1.87229 4.17434 1.87229C2.52471 1.87229 1.89827 2.37344 2.034 3.57412C2.10709 4.24232 2.06535 4.43026 1.68948 5.09846C-1.24435 10.2979 2.72309 16.8651 8.87264 16.9904C15.1266 17.1366 18.5616 12.6993 16.8076 6.77941ZM14.6985 5.69358C13.5709 6.94646 13.4039 6.99866 12.4747 6.45575C11.7334 6.01724 11.1278 4.8792 11.0025 3.67853C10.8772 2.41521 11.5246 2.08111 12.6313 2.83284L13.1742 3.2087L13.7171 2.85372C15.2728 1.82009 17.3191 2.79108 14.6985 5.69358Z" fill="#1D4E1A"/>
<path d="M3.85074 9.10769C3.92382 9.32694 4.08042 10.0578 4.20571 10.7364C5.13493 15.8002 13.2578 15.7062 13.6754 10.632C13.7276 10.0056 13.8425 9.45223 13.926 9.40003C14.6568 8.9302 12.7044 8.30376 11.3263 8.57521C10.8982 8.65874 9.25902 8.67962 7.30661 8.62742C3.69414 8.52301 3.67325 8.52301 3.85074 9.10769ZM12.7045 9.45223V10.2248C12.7045 13.096 7.57805 14.6726 5.87622 12.313C5.29154 11.509 5.302 11.0183 5.21848 9.50444C10.0212 9.34783 10.1361 9.36871 12.7045 9.45223Z" fill="#1D4E1A"/>
</svg>
