<svg width="18" height="16" viewBox="0 0 18 16" fill="none" xmlns="http://www.w3.org/2000/svg">
<path d="M4.42926 9.0019C4.6683 10.9869 5.2711 11.9847 6.62217 12.6186C7.89009 13.211 8.06678 12.7018 7.10026 11.7769C5.136 9.88529 4.6995 8.60695 5.95704 7.99381C6.61182 7.68199 11.4653 7.86903 11.4653 7.86903C11.9537 7.85869 12.3487 8.26399 12.3175 8.75251C12.1823 10.883 11.4861 12.6498 9.33478 12.6602C8.77356 12.6602 8.59678 12.8784 8.9813 13.0863C11.008 14.1776 13.4607 11.6833 13.5127 8.48225C13.5335 7.03764 10.769 6.60112 4.99047 7.13121C4.24218 7.21434 4.22141 7.27668 4.42926 9.0019Z" fill="#1D4E1A"/>
<path d="M10.2493 4.93834C10.6235 5.09425 10.7274 5.22938 10.769 5.6139C10.8417 6.41416 11.4653 6.39338 11.4653 5.60347V5.01112H12.3279C13.6582 5.01112 13.6063 4.39792 12.2656 4.17967L11.5381 4.06535L11.4965 3.42099C11.4445 2.62073 11.0497 2.30894 10.6339 2.72466C10.5403 2.8182 10.4572 3.1092 10.4572 3.37941C10.4572 3.81592 10.4156 3.85748 10.0207 3.85748C9.16843 3.85748 9.32435 4.54342 10.2493 4.93834Z" fill="#1D4E1A"/>
<path d="M11.933 0.801875C10.1454 0.542049 9.83356 0.843449 11.1743 1.55016C12.7436 2.3816 14.9989 5.0006 15.3003 7.41181C15.6744 10.3842 13.2321 13.7202 10.2597 14.2711C5.718 15.1129 1.353 10.2282 2.82879 5.94634C3.78494 3.17146 6.15452 0.770693 7.99409 1.18641C9.06452 1.42545 9.14765 0.84345 8.30582 0.687554C7.83817 0.604415 7.14182 0.583623 6.57026 0.687554C1.28025 1.60213 -1.01658 9.47999 2.93272 13.1798C7.27696 17.2435 14.1883 15.5702 16.6722 9.86451C18.1687 6.43486 15.4874 1.31113 11.933 0.801875Z" fill="#1D4E1A"/>
<path d="M5.25032 4.86547C5.78035 4.86547 5.82191 4.8966 5.82191 5.29155C5.82191 6.33086 6.60139 6.61147 6.76774 5.62416C6.91322 4.76155 6.94435 4.71999 7.49522 4.71999C8.2227 4.71999 8.13956 4.26267 7.38087 4.0756C6.89243 3.95088 6.84043 3.89892 6.84043 3.45202C6.84043 2.46469 6.19609 2.01781 5.85313 2.76609C5.75956 2.97395 5.68684 3.29613 5.68684 3.4936C5.68684 3.82617 5.65568 3.84695 5.12563 3.76381C4.0032 3.58713 4.04474 4.86547 5.25032 4.86547Z" fill="#1D4E1A"/>
</svg>
